# xmcd CD database file
#
# Track frame offsets:
#	150
#	2379
#	19304
#	41308
#	60402
#	78325
#	97536
#	120048
#	126736
#	141413
#	158820
#	175990
#
# Disc length: 2843 seconds
#
# Revision: 0
# Processed by: cddbd v1.5.1PL2 Copyright (c) Steve Scherf et al.
# Submitted via: CDex 1.51
#
DISCID=870b190c
DTITLE=hare-brained unity - 2000'S ★★★★★ DISCO
DYEAR=2006
DGENRE=JPop
TTITLE0=intro
TTITLE1=スターライト
TTITLE2=スペクトル
TTITLE3=星に願いを
TTITLE4=白い街
TTITLE5=バタフライ
TTITLE6=光と影
TTITLE7=Fivestars
TTITLE8=スロウマップ
TTITLE9=サヨナラトーン
TTITLE10=1216
TTITLE11=AT(80') A GO GO
EXTD=YEAR: 2006
EXTT0=
EXTT1=
EXTT2=
EXTT3=
EXTT4=
EXTT5=
EXTT6=
EXTT7=
EXTT8=
EXTT9=
EXTT10=
EXTT11=
PLAYORDER=
